<mxfile host="app.diagrams.net" modified="2024-05-06T02:27:40.137Z" agent="Mozilla/5.0 (Macintosh; Intel Mac OS X 10_15_7) AppleWebKit/537.36 (KHTML, like Gecko) Chrome/123.0.0.0 Safari/537.36 OPR/109.0.0.0" version="24.3.1" etag="bx5XnXMfbQg4p0MCJCW9" type="github">
  <diagram name="PÃ¡gina-1" id="S1EQAlbc48j2_lUzDnNN">
    <mxGraphModel>
      <root>
        <mxCell id="0" />
        <mxCell id="1" parent="0" />
      </root>
    </mxGraphModel>
  </diagram>
</mxfile>
